<svg version="1.2" xmlns="http://www.w3.org/2000/svg" viewBox="0 0 142 142" width="142" height="142"><style>.a{fill:none;stroke:#d4cec4;stroke-miterlimit:100;stroke-width:2}</style><path class="a" d="m122 71c32.2 8.6 22.5 15.5-7.5 14.2 24.9 17 28.6 28.4-2.2 16 21.1 25.8 9.2 25.7-14.4 7 10.3 28.4 6.8 39.9-11.1 11.6 2.2 33.4-7.3 26.3-15.8-2.8-8.5 29.1-18 36.2-15.8 2.8-17.9 28.3-21.4 16.8-11.1-11.6-23.6 18.7-35.5 18.8-14.4-7-30.8 12.4-27.1 1-2.2-16-30 1.3-39.7-5.6-7.5-14.2-32.2-8.6-22.5-15.5 7.5-14.2-24.9-17-28.6-28.4 2.2-16-21.1-25.8-9.2-25.7 14.4-7-10.3-28.4-6.8-39.9 11.1-11.6-2.2-33.4 7.3-26.3 15.8 2.8 8.5-29.1 18-36.2 15.8-2.8 17.9-28.3 21.4-16.8 11.1 11.6 23.6-18.7 35.5-18.8 14.4 7 30.8-12.4 27.1-1 2.2 16 29.9-1.3 39.7 5.6 7.5 14.2zm0 0c32.2 8.6 22.5 15.5-7.5 14.2 24.9 17 28.6 28.4-2.2 16 21.1 25.8 9.2 25.7-14.4 7 10.3 28.4 6.8 39.9-11.1 11.6 2.2 33.4-7.3 26.3-15.8-2.8-8.5 29.1-18 36.2-15.8 2.8-17.9 28.3-21.4 16.8-11.1-11.6-23.6 18.7-35.5 18.8-14.4-7-30.8 12.4-27.1 1-2.2-16-30 1.3-39.7-5.6-7.5-14.2-32.2-8.6-22.5-15.5 7.5-14.2-24.9-17-28.6-28.4 2.2-16-21.1-25.8-9.2-25.7 14.4-7-10.3-28.4-6.8-39.9 11.1-11.6-2.2-33.4 7.3-26.3 15.8 2.8 8.5-29.1 18-36.2 15.8-2.8 17.9-28.3 21.4-16.8 11.1 11.6 23.6-18.7 35.5-18.8 14.4 7 30.8-12.4 27.1-1 2.2 16 29.9-1.3 39.7 5.6 7.5 14.2z"/></svg>