<svg version="1.2" xmlns="http://www.w3.org/2000/svg" viewBox="0 0 499 108" width="499" height="108"><style>.a{fill:#1e1e1e}</style><path fill-rule="evenodd" class="a" d="m22.6 5.3l21.2 2.5q-0.4-0.2-0.8-0.4c-2.6-1.5-5.7-2.9 0.9-3.2l-8.5-0.7c1.9-0.6 8.7 0.2 15.6 1 7 0.8 14.2 1.7 18.7 1.3q12.1 2.3 21.9 4.4c1.3-0.5 9.2-0.5 5.5-1.2 3.5 0.5 6.9 0.8 8.7 0.9 1.8 0.1 2.1-0.1-1-1 13.6 2.7 27 4.8 41.9 6.8 14.8 2 31 3.9 48.1 5.8 17.3 2 34.4 3.9 51.5 5.9 16.3 1.9 30.9 3.8 39.1 5.3 6.2 0.6 11.5 0.7 14.8 0.7-4.5 0.2 0.9 0.7 9 1.2 8.1 0.5 18.8 1.1 23.8 1.6q-6.7 0.3-15.3 0.5c8.4 0.6 14 0.9 18.3 1.1 3.5 0.2 8.7 0.4 11 0.5 14.5 1.6 23.9 2.9 31.6 4 7.7 1.1 13.5 2.1 22.4 3.3 2.5 0.5 7.9 1.2 17.5 2.2-4.9-0.2-12.2-0.6-18.5-1.1-6.3-0.4-11.5-0.7-10.5-0.4 7 0.3 13 0.7 17.7 1.1 4.7 0.4 8.4 0.8 11.7 1.2 3.3 0.4 6.2 0.8 9.5 1.1 2.7 0.3 5.6 0.5 9.2 0.7-12.4-0.5-9.5 0.1-8.8 0.4 0.5 0.3 0.4 0.4-2.2 0.3-2.6 0-7.6-0.3-17.8-1 7 1 21.8 1.9 23.1 1.8 3.3 0.5 6.8 1 11.2 1.6 4.4 0.6 9.9 1.2 16.5 1.9-0.9 0.1 9 1.5 17.3 2.9 7.1 1.1 14.4 2.3 18.3 2.9 0 0 0.1 0 0.3 0 0.5 0.1 1.8 0.3 3.5 0.5-0.9 0-1.9 0-2.9 0l2.9 0.1-0.7-0.2 0.7 0.2h-6.6c-1.2 0-1.7 0-2 0-0.7 0-1.1-0.1-1.8-0.1-0.7-0.1-1.7-0.2-4.2-0.3-6.7-0.2-4.4 0.2-3.8 0.6l1.7 0.1-2.4 0.1c-1.2 0-1.2-0.3-1.6-0.5-0.5-0.2-1.1-0.4-8.4-0.8 0.8 0.1 2 0.4 2.6 0.7 0.6 0.2 0.4 0.4-4.1 0 4.8 0.1-1.1-0.6-5.9-0.9l-8.8-0.3 15.3 1.5c-4.3 0-9.2 0-15-0.2-5.8-0.2-12.4-0.4-19.5-0.7q-10.8-0.5-21.7-1c-7.2-0.3-14.1-0.6-19.2-0.6-14.7-1.8-25.9-2.5-37.9-3.4-5.9-0.4-12.1-0.9-18.4-1.5-6.4-0.6-12.8-1.4-20.2-2.5l5.2 0.6c4.7 0.2-3.7-0.8-13.1-1.8-9.5-1-19.3-2-21.5-2 4.5 0.5 8 0.9 10.6 1.4 2.7 0.4 4.6 0.8 6.6 1.2 4 0.8 8.3 1.6 25.8 2.9q-3.9 0.3-10.7 0.5c18.4 3.5-6.9 1.8-33.9-0.4-12.9-1-26.7-2.2-40.4-3.3-12.7-1-23.9-1.7-34.7-2 3 0 3.6-0.2 3.9-0.3q-3.5-0.1-7-0.2-1.1 0-2.2 0c-1.3 0-2.5-0.1-3.9-0.2-2.6-0.2-5.5-0.6-8.6-1-6-0.8-13.1-1.7-12.8-1.3l-7.3-1.8c-1.1 0.8-0.5 1.3-1.3 1.5-0.7 0.2-2.6 0.1-7.3-0.3q-3.4-0.4-8.3-0.9c-1.8-0.3-3.4-0.8-8-1.3 2.6 0.6 5.6 1.3 6.8 1.7 1.2 0.4 0.8 0.5-4.2 0.1l-4.3-0.7-9.2-0.4c-29.3-4-25.3-2.8-22.3-2 13.3 2 20.5 3.1-4.1 0.5 19.3 2.4 32.8 4.6 42.4 5.9-1.9-0.2-3.6-0.4-5-0.4 11 1.2 13.4 1.6 13.8 1.8 0.3 0.3-1.3 0.5-0.8 0.9 0.2 0.2 0.9 0.4 2.5 0.6 7.3 0.9 10.2 0.7 14.2 0.8-1.9 0.1-0.7 0.4 1.5 0.7 2.2 0.4 5.5 0.7 8.4 1 6 0.5 10.1 0.5 9.5 0.8 0.9 0.3 0.1 0.5-1.3 0.7-1.3 0.2-3.4 0.4-4.1 0.7 4.1 0.6 5.7 0 7.2-0.4 0.8-0.2 1.5-0.3 2-0.3 0.6 0 0.9 0.2 1.7 0.7-0.9 0-2.5-0.1-2.4 0.1 0.5 0.2 0.7 0.6 1.2 1.2 0.5 0.5 1.2 1.3 2.4 2 0.7 0.4 1.3 0.8 2.2 1.2q1.7 0.7 3.3 1.2c2.2 0.8 4.2 1.3 6 1.3l-4.4-1.5q2.4 0.3 4.9 0.8c2 0.4 4.3 0.9 6.4 1.4 4.3 1 8.1 2.1 11.2 3 6.4 1.8 10.2 2.9 15.3 2.5q1-0.4 1.9-0.9c6.2 1.6 9.7 2.4 12.4 3 2.6 0.6 4.4 0.8 6.2 1.1 1.8 0.3 3.7 0.5 6.6 1.1q1.5 0.3 3.5 0.8c3.2 0 6.4 0.4 9.4 0.8-2.5-0.2-4.7-0.2-6.8-0.2q2.1 0.5 4.5 1.1c16.3 1.3 31.7 0.5 46.3 1.1l0.2 0.3h17.8c-4.7 0.7 3.6-0.5 8.9-0.1 5.7-0.3 14.9 0.3 21.6 1.2l11.3 0.5c-12.6 0.2 0.9 1.5 1.6 2.7l7.2-0.6c3 0.6-4.7 0.7 0.7 1.1 3-0.2 9.8-0.1 15.5-0.2l0.1-2.1q0 0 0 0l-0.1 2.1q0 0 0.1 0l-0.2 1.8q0 0 0 0l-0.2 2.9h0.1l0.1-2.9q0.1 0 0.1 0l-0.2 2.9h0.1q0 0-0.1 0l-0.1 2.9q-0.1 0-0.1 0l0.2-2.9q0 0-0.1 0l-0.1 2.9q0 0 0 0l-0.1 1.9q0 0 0 0l-0.1 2q0 0 0 0l0.1-2c-3.4-0.1-6.5 0-8.2 0.3 0.7 0.4 2.4 0.8 4.5 1.2 0.6-0.1 0.6-0.1 0.2 0 0.2 0 0.3 0.1 0.5 0.1-0.2 0-0.3-0.1-0.6-0.1-0.6 0.1-1.6 0.2-2 0.3-9-0.9-5.7-0.2-5.5 0.4-9.5-2.5-15.3-1.9-22.4-4.2 5.7 2.2-19.4-1.3-19 0.1 4.1 0.6 8.5 1.3 13 2 4 0.8 6.5 1.6 8.5 2.2 1.9 0.7 3.5 1.2 4.2 1.5-7.7-1.7-12.1-1.7-16-1.8 16.4 2.1 18.4 2.6 16.6 3.2 7.9 0.8 16 1.7 22.7 2.6 6.7 0.8 11.5 1.7 13.7 2.6-2.3-0.4-4.5-1-6.5-1.1-1.9 0 2.1 0.7 3.2 0.9-0.9 0-2.1-0.2-3.7-0.4-1.5-0.2-3.3-0.5-4.9-0.6 7.8 1.3 9 1.8 10.6 2.4 0.7 0.3 1.4 0.6 2.4 1q1.6 0.5 4.4 1.3c-3.3-0.8-2.7-0.3-3.1-0.2 2.7 0.3 3.9 0.9 5.9 1.5 0.9 0.3 2 0.5 2.6 0.7 0.6 0.1 0.7 0.2 0.4 0q0.6 0.2 1.3 0.4l0.6 0.2c0.3 0 0 0-0.1 0h-0.3q-1.6 0-3.3-0.1-3.6-0.1-7.3-0.2c-5.1-0.2-10.3-0.4-15.2-0.6-9.9-0.4-18.1-0.6-30.1-2.4-4.6-0.7-5.6-0.7-5.6-0.4 0 0.3 1.2 0.8-0.2 0.8l-9.6-1.9c2.4 0.9 3.7 1.4 4.2 1.7 0.4 0.2 0.2 0.3 0.3 0.6-1.7 0-3.5 0.1-6.3 0.5-0.7-0.7-4.1-1.5-9.4-2.4-5.4-1-12.7-2.1-21.9-3.5q3.1 1.4 3.6 2.5l-16.5-3.2c-1.2 0.5-10.6-0.7-19.3-1.8 5.5 2.3-22.9-0.7-23.4 0.2-8.6-1.9-12.9-2.2-17.5-2.5-4.4-0.3-9-0.6-14.2-2.1-1.7 0.1-4.5 0.1-7.7 0 2.7 0.7 5.1 1.5 5.7 1.9 0.6 0.3-0.8 0.4-5.1-0.3-0.7-0.1-1.2-0.1-1.8-0.2l-5.1-1.7c-7-0.4-14.7-1-19.8-1.5 2.3 0.3 5 0.8 8.1 1.4-3.4-0.6-6.5-1.1-9.6-1.6-0.8-0.1-1.5-0.1-2.1-0.2q0.5 0 1.1 0c-2.9-0.5-5.9-1-10.2-1-16.6-3.6-37.5-1.1-55.8-5.5 2.7 0.5 6.6 1 7.7 0.7-7.7-0.7-15.4-1.9-22.4-2.9l-1.7-0.3-0.4-0.1-0.3-0.1h-0.1c-0.4-0.1-0.9-0.3-1.3-0.6-0.9-0.5-1.7-1.6-2-2.5-0.2-0.5-0.3-0.8-0.3-1.6-0.1-0.7 0.1-1.8 0.7-2.7 0.6-1 1.5-1.6 2.2-1.9 0.3-0.2 0.7-0.3 0.9-0.4h0.1 0.4l0.4-0.1h0.1c0.4 0 0.6 0 0.9 0q0.2 0 0.3 0c0.1-0.3 0-0.1 0-0.2h0.1 0.6 1.5c1.8 0 3.7 0.2 5.7 0.5q1.5 0 3 0c-2.1-0.4-0.8-0.7 4.5-0.6l-0.4-0.7c11.5-0.3 20.3-0.3 29.5 0l0.6-1.3c5.8 0.4 14.6 0.4 23.3 0.5l-199-15m268 20.3l-11.2-0.9q-1.4-0.1-2.9-0.2h-0.1l-27.2-2.1q-0.4 0.1-0.7 0.2-0.4-0.2-0.8-0.3l-17.7-1.3q0.1 0 0.1 0c1.2 0.6 2 1.1 2.7 1.7 1.4 0 2-0.2 2.8-0.2q-0.3-0.2-0.5-0.3c-0.3-0.2-0.4-0.4-0.2-0.5q0.1-0.1 0.5-0.1 0.2 0 0.5 0c0.2 0 0.4 0.1 0.5 0q0.6 0 1.9 0.2c4.1 1.4 6.7 1.2 18 2.4 0.9 0.4-0.5 0.4-2 0.4-1.5-0.1-3.1-0.1-3.6 0q4.2 0.1 9.3 0.4c0.7 0.2-1.7 0.1-2.8 0.1 2.6 0.3 5 0.3 7.5 0.4 2.5 0 5.3 0.1 9.7 0.8 4 0.1 5.4 0.4 5.7 0.7q0.8 0.1 1.8 0.2l-0.4-0.6 7.1 1.5-9.5-0.3c-0.3 0.1-0.5 0.3 0.2 0.5 0.9 0.3 3.4 0.7 10 1.4-1.4 0-4-0.3-6.9-0.6-3.8-0.3-5.8-0.4-8.9-0.7 7.7 0.9 12.2 1.5 15.8 1.9 3.4 0.5 6.3 0.9 9.9 1.3q5.5 0.2 11 0.4c2-0.1 3.9-0.2-5-0.7 6.2 0 3.2-1.1 13.6-0.4q0.6 0.2 1 0.4 0.3-0.1 0.6-0.1l-29.8-5.6 22.6 1.7c-1.5-0.3-3.3-0.7-5.5-1.1l1.6 0.1q-0.5-0.1-0.9-0.2-4.9-0.4-10-1.1c-3.2 0-6.6 0.1-10.6 0zm-136.3 1.8q-1.6-0.1-2-0.2c0 0.1-0.1 0.3-0.1 0.4q0.2 0.8 0.3 1.6c0.1 0.6 0 0.9 0.2 2l0.1 1.2v-0.1c0 0 0.1 0 0.1 0h0.3l0.7-0.1 1.5-0.2c4-0.4 8.4-0.7 14.1 0.3 3.9 0.2 11.7 2.6 12.4 1.6q-0.1-0.1-0.3-0.1l-2.9-0.1q0.9-0.1 2-0.3 0.4 0.2 0.9 0.4l9.6 0.2 3 1.1c7.9 0.3 15.5-0.6 21.8-1.7q-1.8-0.2-3.6-0.4-0.1 0.1-0.1 0.2c-5-0.1-5.5-0.4-5.5-0.7q-2.4-0.3-4.7-0.5c-1.2 0.2-2.3 0.5-2.5 0.7-1.2-0.3-1.3-0.7-0.9-1q-1.6-0.2-3.3-0.3c-5.8 0.7-11.1 1.4-14.7 2q0 0 0 0c-2.1-1-3.4-2.4-4-3.9-10.7-1-18.5-1.7-22.4-2.1zm98.8 2.7c-1.5-0.4-2.3-0.7-2.9-0.9-1.7 0.1-3.5 0.3-5.1 0.6q4 0.1 8 0.3zm-0.2-0.9l2.1 0.9q0.7 0 1.4 0.1c-0.6-0.3-1.5-0.6-1.8-0.9q-0.8 0-1.7-0.1l-0.2-0.1q1.1 0.1 1.9 0.2-0.1-0.2 0-0.3-1.3 0-2.8 0.1 0.5 0 1.1 0.1zm129.2 13.8q3.9 0.5 7.3 1-2.7-0.4-5.7-0.8l7.7 1.5q0.3 0 0.6 0.1c0.3 0 0.9 0.1 1.7 0.1 1 0.1 1.5 0.1 1.4-0.1-1.6-0.2-3.6-0.5-5.7-0.8 7.8 1 13.1 1.7 13.7 1.6l-20.2-3.4c-0.4 0-1.2 0-2.1 0.1q-0.7 0-1.5 0h-0.3c-0.1 0-0.2 0-0.3 0zm-9.4-11.7c0.2 0.2 0.2 0.4 0 0.6l23.5 1.8c1.3-0.8 3.5-1.7-2.5-2.9-14.1-1.5-17.5-0.3-25.3 0.5zm66.6 5.6l0.1-2.9q-2.7 0.2-5.3 0.3c7.9 0.9-9 0.6-4.5 1.9l1.5 0.1h5.4c0.7 0.2 0.8 0.3 0.6 0.4zm0 0.1q-0.4-0.1-2.3-0.1c-0.6 0.2-2.1 0.3-3.8 0.4l3 0.4c0.1 0.2-2 0.1-5-0.2q-0.9 0.1-1.6 0.1c-17.9-1.7-48.8-2.2-60.9-3.3q-4.3-0.2-8.6-0.3 0.2 0.1 0.4 0.2-0.6-0.1-1.1-0.2-3.7-0.2-7.5-0.3c4.1 0.8 8 1.6 15.5 3.1q0.4 0 0.8 0.1l0.2-1.2c1.6 0.4 1.8 0.7 4.5 1.1l-3.1 0.3c4.6 0.7 12.1 2 10.3 2q2.3 0.2 4.9 0.5c-4.6-1.2-3.4 0-7.5-1.6 10.7 1.3 21.5 0.4 30.2 0.2l-8.4-1.7c5.7-1.7 19 2.2 24.1 1.9-3.3 0.2-10.2-0.7-11.2-1.2l2 1.6c9.6 1.3 17.7 1.2 25 1zm-417.2-24c0.5-0.2-0.6-1.3 2.8-1-0.1-0.3 3 1.2-2.8 1zm67.6 0.8l-8.5 0.4 1-0.3zm11.2 2.2l4.4-1.2 1.5 0.6c9.5 1.3 24 0.3 28.9 2.5-8.1-1.1-23.2-1.3-34.8-1.9zm57.5 7.6c-0.4-0.1-0.6-0.1-1.2-0.2q0.4 0 0.7 0c-1.6-0.2-2.8-0.3-3.2-0.5l7.4-0.2q-0.5-0.1-0.9-0.1-0.3 0-0.6-0.1-2.4 0-4.9-0.1-1.2-0.1-2.4-0.1l-0.1 0.7c-0.2 0.5-0.1 0.7-0.2 1q-0.1 0.9-0.3 1.8l-0.3 0.8c0 0.3 0.1 0.4 0 0.5q0 0.1-0.1 0.2c1-0.2 7.7-0.1 18.4 0.2q-0.7-0.1-1.3-0.1c-4.3-1.2 3.5-2.8 3.2-3.4-1.2 0.2-5.1 0-9-0.2 0 0.1 0 0.2 0.2 0.3-2.7-0.3-4.2-0.4-5.4-0.5zm24.2 2.9c2.4-0.1-3.6-0.6-5.4-1.2-0.6 0.7-0.9 1.5-0.9 2.4 4.1 0.1 8.6 0.2 13.5 0.4l1.7-2 0.3 2c3.5-0.2 6.4-0.5 8.2-1-3.1-0.5-7.2-1.1-11-1.6l-3.6-0.1c3.5 0.9 4.2 1.3-2.8 1.1zm-54.4-11l4.8-0.3 5.5 1c0.3 0.6-7.9-0.8-10.3-0.7zm133.3 29.4l5 1.7c1.7 0.7-1.3 0.4-5.9-0.5-4.7-0.8-10.8-2-16-3 4.6 0.7 10.2 1.4 16.9 1.8zm49.2-19.5c3.7 0.2 7.8 0.5 12.9 1.1-1.7 0.9-6.7-0.3-12.9-1.1zm-135.7-26.7c2.8 0.2 5.8 0.6 9 1-2.7-0.3-5.6-0.6-9-1zm-56.1-39.4c-3.4-0.3-7-0.8-9.4-1 5.2 0.5 8 0.8 9.4 1zm304.5 79.2q0.1 0 0.1 0 0 0-0.1 0zm0.1 0c0.7-0.1 1.2-0.2 1.5-0.5-0.1 0.3-0.7 0.4-1.5 0.5zm15.4 5.3c-1.1-0.1-2-0.3-2.8-0.4 1.5 0.2 2.7 0.3 2.8 0.4zm0.8-13.6c-1.3-0.1-1.7-0.1-2-0.2 0.7 0.1 1.4 0.2 2 0.2zm-6.2 13.4c1 0.1 2 0.2 3.3 0.4-3.4-0.1-3.8-0.2-3.3-0.4zm3.3-13.8c-0.2 0.1 0.1 0.1 0.9 0.2-2-0.1-4.1-0.3-6.3-0.3 2.7 0.1 4.3 0.1 5.4 0.1zm-97.7 16.7c7.3 1.4 13.9 2.7 17.7 3.6q-5.9-1.9-14.3-3.9-5.1-0.6-10.2-1.1c2.3 0.5 4.6 0.9 6.8 1.4zm-130.5-19.5c-3.5-1.2 5.8-0.7 8.8-0.4l-24-2.9c0.2 0.4-0.8 0.7-2.6 0.8-1 0.1-1.7 0.1-2.3 0-2.4 0.1-5.3 0-7.7 0 1.9 0.2 4.9 0.6 8.2 1l12.9 0.4c0.2 0.5-0.5 0.9-1.9 1.2 1.8 0.3 3.2 0.6 4.1 0.8 0.8 0.2 1.3 0.5 1.5 0.7q7.1 0.2 14.9 0.5c-6.3-1.3-1.7-1.2-11.9-2.1zm-33-1.9l1.7 0.1q0.4-0.4 1-0.7c-1.8 0.1-2.9 0.2-2.7 0.6zm2.7-0.6q1.1 0 2.5 0c-1-0.2-1.7-0.2-1.9-0.3q-0.3 0.2-0.6 0.3zm233.8 12.6q0 0.1 0.1 0.1zm-24.7 3.3q-0.7-0.3-0.8-0.5-0.8-0.1-1.6-0.2 1 0.3 2.4 0.7zm17.1-1q0.5 0.2 1.1 0.4-0.4-0.2-1.1-0.4zm-79 8.5c2.9 0.2 0.2-0.2-2-0.7q1.3 0.4 2 0.7zm-0.3-0.1q0.2 0.1 0.3 0.1 0 0 0 0-0.1 0-0.3-0.1zm193.4-36.1q-0.6-0.1-1.6-0.2c0 0 0.5 0.1 1.6 0.2zm-56.9-10.9q-1.2-0.1-2.3-0.1 1.1 0 2.3 0.1zm-67.5 28.5q0.1 0 0.3-0.1c-4.4-0.4-6.6-0.6-0.3 0.1zm13.3 1c1.3-0.2 1.2-0.3 0.7-0.5-0.9 0.3-3.9 0.2-7.2 0 0.9 0.3 2.6 0.6 6.5 0.5zm102.6-18.4l1.9 0.1c0.2-0.1 0.6-0.1-1.9-0.1zm-332.8 13.3q0 0-0.1 0h2.1zm22.5 7.7c0.9 0.3 2.4 0.6 5.1 0.8-4.1-0.2-5.3-0.5-5.1-0.8zm202.2 9l0.9 0.1q-0.3 0-0.9-0.1zm0.9 0.1c1.2-0.1 0.1-0.5 0-0.7 2 0.3 3.4 0.7 7.4 0.9zm-19-6.1q-0.5 0-1 0c5.9 0.2 11.1 0.2 11.7 1.4-6.2 0-12.5 0-10.7-1.4zm-7.8-0.5c1.8 0.2 3.6 0.3 5.4 0.4-3.2-0.1-6.1 0.1-5.4-0.4zm51.4-5.9c-1.5-0.5-0.6 1.2-3.3 0.8-15.3 0.2 6.5-2 3.3-0.8zm-357-76.8l-6-1.6 10.2 1.8zm-25.5-1.6q3-0.4 6.5-0.7 0.9 0.9 1.6 1.9c-1.4-0.6-5.9-1-8.1-1.2z"/></svg>