<svg version="1.2" xmlns="http://www.w3.org/2000/svg" viewBox="0 0 483 130" width="483" height="130"><style>.a{fill:#1e1e1e}</style><path fill-rule="evenodd" class="a" d="m8 69l21.2-3.1q-0.4-0.1-0.9-0.2c-2.9-0.8-6.2-1.4 0.1-3.3l-8.4 1.6c1.7-1.1 8.4-2.1 15.4-3.1 6.9-1.1 14-2.1 18.3-3.6q12.3-0.9 22.3-1.5c1.2-0.8 8.8-2.8 5-2.5 3.5-0.5 6.9-1.1 8.6-1.5 1.8-0.3 2-0.6-1.2-0.6 13.9-1 27.4-2.4 42.3-4.3 14.8-1.9 30.9-4.3 48-6.9 17.1-2.6 34.3-5.1 51.3-7.7 16.2-2.4 30.8-4.3 39.2-5 6-1 11.2-2.3 14.4-3.2-4.3 1.4 1 0.5 9-1.1 7.9-1.6 18.4-3.8 23.4-4.7q-6.4 2.1-14.7 4.5c8.3-1.6 13.8-2.7 18-3.6 3.5-0.8 8.5-1.9 10.8-2.4 14.3-2.3 23.8-3.5 31.5-4.4 7.8-0.9 13.7-1.4 22.5-2.6 2.6-0.2 8-0.9 17.5-2.5-4.7 1.2-11.9 2.6-18.2 3.9-6.1 1.2-11.2 2.3-10.2 2.3 6.8-1.5 12.7-2.7 17.4-3.6 4.7-0.8 8.3-1.4 11.6-1.8 3.3-0.5 6.2-0.9 9.5-1.4 2.7-0.5 5.5-1 9.1-1.7-12.2 2.7-9.2 2.5-8.4 2.7 0.4 0 0.4 0.2-2.1 0.8-2.5 0.6-7.5 1.7-17.4 3.6 7-0.8 21.5-3.8 22.7-4.2 3.4-0.4 6.8-0.8 11.3-1.4 4.4-0.6 9.8-1.4 16.4-2.4-0.8 0.3 9.1-0.9 17.4-1.7 7.2-0.8 14.5-1.5 18.5-2 0 0 0.1 0 0.3 0 0.5-0.1 1.8-0.2 3.5-0.4-0.9 0.2-1.9 0.5-2.8 0.7l2.8-0.7h-0.7 0.7l-6.4 1.7c-1.2 0.4-1.6 0.5-1.9 0.6-0.7 0.1-1 0.2-1.7 0.3-0.7 0.1-1.8 0.3-4.2 0.9-6.5 1.5-4.2 1.2-3.5 1.5l1.6-0.4-2.2 0.8c-1.2 0.3-1.3 0-1.7-0.1-0.5-0.1-1.2-0.1-8.4 1.4 0.9-0.1 2.2-0.1 2.8 0 0.6 0.1 0.5 0.3-4 1.1 4.6-1.2-1.3-0.3-5.9 0.6l-8.6 2 15.2-2.5c-4.2 1.1-9 2.4-14.6 3.7-5.6 1.3-12.1 2.8-19 4.3q-10.5 2.4-21.3 4.8c-7 1.5-13.7 3-18.7 4.3-14.6 2.1-25.6 4.3-37.4 6.6-5.9 1.1-11.9 2.2-18.2 3.3-6.4 1-12.8 2-20.2 2.8l5.2-0.8c4.6-1-3.8 0.2-13.1 1.7-9.4 1.4-19.2 3-21.4 3.6 4.6-0.7 8-1.1 10.7-1.4 2.7-0.3 4.6-0.4 6.6-0.5 4.1-0.2 8.5-0.6 25.8-3.9q-3.7 1.3-10.2 3.2c18.6-1.4-6.2 3.6-33 8.5-12.7 2.3-26.3 4.8-39.9 7.2-12.5 2.4-23.4 4.6-34 7.1 3-0.8 3.5-1.2 3.7-1.4q-3.4 0.8-6.8 1.7-1.1 0.2-2.1 0.5c-1.3 0.4-2.5 0.6-3.8 0.9-2.6 0.5-5.5 0.9-8.6 1.3-6 0.8-13.2 1.7-12.7 2l-7.5 0.2c-0.9 1-0.2 1.4-0.9 1.8-0.6 0.4-2.5 0.8-7.2 1.5q-3.3 0.6-8.2 1.4c-1.8 0.1-3.5 0.1-8.1 0.7 2.7 0 5.8-0.2 7.1-0.1 1.2 0.1 0.9 0.3-4.1 1.2l-4.3 0.5-9 2c-29.3 3.7-25.2 3.8-22.1 3.8 13.4-1.5 20.7-2.3-3.8 1.5 19.2-2.6 32.9-4 42.4-5.3-1.8 0.3-3.5 0.6-4.8 0.9 10.9-1.7 13.3-1.9 13.8-1.7 0.3 0.1-1.1 0.7-0.6 1 0.3 0.1 1 0.1 2.6-0.1 7.3-1 10-1.9 13.9-2.9-1.8 0.6-0.6 0.6 1.6 0.3 2.3-0.2 5.5-0.7 8.4-1.2 5.9-1.1 10-2.1 9.4-1.7 1 0 0.2 0.4-1 1-1.3 0.6-3.3 1.3-3.8 1.8 4.1-0.5 5.4-1.5 6.8-2.3 0.7-0.4 1.3-0.7 1.9-0.8 0.5-0.1 0.8-0.1 1.8 0.3-0.8 0.2-2.5 0.5-2.3 0.7 0.5 0 0.8 0.3 1.4 0.8 0.6 0.4 1.6 0.9 2.9 1.3 0.8 0.2 1.4 0.4 2.5 0.6q1.8 0.2 3.5 0.3c2.3 0.1 4.3 0.1 6-0.3l-4.6-0.3q2.4-0.4 4.9-0.6c2.1-0.1 4.5-0.2 6.6-0.3 4.4-0.1 8.4 0 11.6 0 6.7 0.1 10.6 0.2 15.4-1.5q0.9-0.7 1.7-1.3c6.3-0.1 9.9-0.2 12.7-0.4 2.7-0.1 4.4-0.3 6.3-0.5 1.8-0.2 3.7-0.5 6.6-0.7q1.6-0.1 3.6-0.1c3.2-0.8 6.3-1.3 9.3-1.7-2.4 0.5-4.6 1-6.6 1.6q2.1-0.1 4.6-0.1c16.1-2.9 30.8-7.8 45.1-10.9l0.2 0.2 17.3-4.7c-4.4 2 3.3-1.4 8.5-2.3 5.5-1.7 14.5-3.5 21.2-4.4l11.1-2.5c-12.2 3.5 1.2 1.2 2.1 2.2l6.9-2.5c3-0.1-4.3 1.9 0.9 1 2.9-1.1 9.5-2.7 15-4.3l-0.4-2q0 0 0 0 0 0 0 0l0.4 2q0 0 0 0l0.4 1.8q0 0 0 0l0.5 2.8h0.1l-0.6-2.8q0 0 0 0l0.6 2.8h0.1q0 0-0.1 0l0.6 2.9q0 0 0 0l-0.6-2.9q0 0-0.1 0.1l0.6 2.8q0.1 0 0.1 0l0.3 1.8q0 0 0 0l0.4 1.7-0.4-1.7c-3.3 0.8-6.3 1.7-7.8 2.4 0.7 0.2 2.5 0.1 4.7 0 0.5-0.2 0.5-0.2 0.1-0.1 0.2 0 0.4 0 0.5 0-0.2 0-0.3 0.1-0.6 0.1-0.5 0.2-1.5 0.6-1.8 0.8-9 1.4-5.6 1.3-5.2 1.7-9.9 0.2-15.3 2.2-22.7 1.9 6 0.6-19.2 3.7-18.3 5 4.1-0.5 8.5-1 13-1.4 4-0.3 6.7-0.2 8.8-0.1 1.9 0.1 3.7 0.2 4.4 0.3-7.9 0.4-12.1 1.5-15.9 2.4 16.4-2.2 18.5-2.2 16.9-1.2 7.8-1.3 15.9-2.5 22.6-3.4 6.7-0.9 11.6-1.3 13.9-1-2.3 0.2-4.6 0.2-6.6 0.7-1.9 0.4 2.2 0.1 3.3 0-0.8 0.2-2.1 0.3-3.6 0.5-1.5 0.2-3.4 0.4-4.9 0.7 7.8-0.8 9.1-0.6 10.8-0.4 0.8 0.1 1.5 0.2 2.6 0.3q1.7 0.1 4.6 0.1c-3.4 0.2-2.7 0.4-3 0.6 2.7-0.4 4-0.1 6-0.1 1 0.1 2.1 0.1 2.7 0 0.7 0 0.8 0 0.4 0q0.7 0 1.3 0h0.7c0.3 0 0.1 0-0.1 0.1l-0.3 0.1q-1.6 0.3-3.2 0.7-3.5 0.8-7.1 1.7c-5 1.1-10.1 2.3-14.9 3.4-9.6 2.2-17.6 4-29.7 5.5-4.5 0.4-5.6 0.8-5.5 1 0.1 0.3 1.4 0.5 0 0.8l-9.7 0.7c2.5 0.2 3.9 0.3 4.4 0.5 0.6 0.2 0.3 0.3 0.5 0.5-1.7 0.5-3.4 1-5.9 2.2-0.9-0.5-4.4-0.4-9.8 0.1-5.4 0.4-12.8 1.3-22 2.3q3.3 0.5 4.1 1.5l-16.8 1.1c-1 0.8-10.4 2.1-19 3.3 5.9 0.8-22.4 5.3-22.7 6.3-8.8 0.3-13 1.2-17.5 2.1-4.3 0.8-8.8 1.8-14.3 1.6-1.6 0.6-4.2 1.3-7.4 2 2.8 0 5.3 0.1 6 0.3 0.6 0.3-0.7 0.6-5 1.1-0.6 0.1-1.1 0.2-1.8 0.3l-5.3-0.4c-6.9 1.5-14.5 2.9-19.6 3.7 2.3-0.3 5.1-0.5 8.2-0.7-3.4 0.3-6.6 0.7-9.6 1-0.8 0.1-1.6 0.2-2.1 0.3q0.4-0.1 1-0.2c-3 0.1-6 0.5-10.1 1.6-17 0.8-36.6 8.7-55.4 9.1 2.8-0.2 6.7-0.7 7.7-1.3-7.7 1.3-15.4 2.1-22.5 3l-1.6 0.2h-0.5-0.3-0.1c-0.4 0-0.9-0.1-1.4-0.2-1-0.3-2.1-1.1-2.6-1.9-0.3-0.4-0.5-0.7-0.7-1.5-0.2-0.7-0.3-1.8 0-2.8 0.3-1.1 1-2 1.6-2.4 0.3-0.3 0.7-0.5 0.8-0.6h0.1l0.4-0.2 0.3-0.1 0.2-0.1c0.4-0.1 0.6-0.1 0.9-0.2q0.1 0 0.2-0.1c0-0.3 0-0.1 0-0.1l0.1-0.1 0.5-0.1 1.5-0.4c1.7-0.5 3.6-0.8 5.6-1.1q1.5-0.3 2.9-0.7c-2.1 0.1-0.9-0.5 4.2-1.7l-0.6-0.6c11.1-3.2 19.6-5.6 28.6-7.6l0.2-1.4c5.7-1.2 14.2-3.4 22.6-5.6l-196.1 37m264.2-49.8l-11.1 2.1q-1.3 0.3-2.8 0.5h-0.1l-26.8 5.1q-0.4 0.1-0.7 0.3-0.3 0-0.8 0l-17.5 3.3q0.1 0 0.2 0c1.3 0.2 2.2 0.5 3 0.9 1.3-0.4 1.9-0.7 2.6-1q-0.3 0-0.5-0.1c-0.4-0.1-0.5-0.3-0.4-0.4q0.1-0.1 0.5-0.2 0.2-0.1 0.5-0.1c0.3-0.1 0.4-0.1 0.5-0.2q0.5-0.1 1.8-0.3c4.4 0.3 6.9-0.6 18.1-2.4 1 0.2-0.4 0.6-1.9 0.9-1.4 0.4-3 0.7-3.4 1q4.1-1 9.1-2c0.7 0-1.6 0.5-2.7 0.8 2.6-0.4 4.9-1 7.3-1.6 2.5-0.6 5.2-1.2 9.7-1.8 3.8-0.8 5.3-0.9 5.6-0.7q0.8-0.1 1.8-0.3l-0.5-0.5 7.2-0.3-9.2 2.1c-0.3 0.2-0.5 0.4 0.2 0.5 1 0 3.5-0.3 10.1-1.3-1.3 0.3-4 0.8-6.8 1.3-3.7 0.6-5.7 1-8.8 1.5 7.7-1 12.1-1.7 15.7-2.2 3.5-0.4 6.3-0.8 10-1.3q5.4-1.2 10.7-2.5c1.9-0.6 3.7-1.2-5 0.6 6-1.6 2.8-1.9 13-3.9q0.7 0.1 1.1 0.1 0.3-0.1 0.5-0.2l-30.2 2.3 22.2-4.2c-1.5 0.1-3.3 0.2-5.5 0.4l1.5-0.3q-0.4 0-0.9 0-4.8 0.9-9.9 1.5c-3.1 0.9-6.3 1.8-10.2 2.8zm-131.3 37q-1.6 0.3-2 0.4c0.1 0 0 0.2 0.1 0.3q0.4 0.7 0.7 1.5c0.2 0.6 0.2 0.9 0.6 1.9l0.4 1.1v-0.1c0 0 0.1 0 0.1 0l0.3-0.1 0.6-0.3 1.4-0.6c3.8-1.4 8-2.8 13.7-3.3 3.9-0.8 12.1-0.5 12.5-1.7q-0.2 0-0.4 0l-2.8 0.7q0.8-0.4 1.8-0.9 0.5 0.1 1 0.2l9.3-2.3 3.2 0.3c7.7-1.8 14.9-4.6 20.7-7.3q-1.8 0.3-3.6 0.6-0.1 0.1-0.1 0.1c-4.8 1.3-5.3 1.1-5.5 0.8q-2.3 0.4-4.6 0.8c-1.2 0.5-2.2 1-2.2 1.3-1.3 0-1.5-0.3-1.2-0.8q-1.6 0.3-3.2 0.6c-5.5 2.1-10.4 4.2-13.8 5.7q0 0 0 0c-2.2-0.4-3.9-1.4-4.9-2.6-10.5 1.7-18.2 3-22.1 3.7zm96.2-23c-1.6 0.1-2.4 0-3-0.1-1.7 0.6-3.3 1.2-4.9 1.9q3.9-0.9 7.9-1.8zm-0.5-0.8l2.3 0.3q0.7-0.1 1.4-0.3c-0.7 0-1.6-0.1-1.9-0.3q-0.9 0.1-1.8 0.3h-0.1q1-0.2 1.8-0.3-0.2-0.2 0-0.4-1.4 0.4-2.8 0.9 0.6-0.1 1.1-0.2zm128.5-20.2q3.8-0.5 7.3-0.9-2.8 0.4-5.8 0.8l7.9-0.6q0.2-0.1 0.5-0.1c0.4-0.1 0.9-0.2 1.8-0.3 0.9-0.2 1.4-0.4 1.3-0.5-1.6 0.2-3.6 0.5-5.7 0.7 7.8-1 13.1-1.8 13.7-2l-20.5 2c-0.4 0.1-1.1 0.3-2 0.6q-0.7 0.2-1.4 0.4l-0.4 0.1c0 0-0.1 0-0.2 0.1zm-12.1-8.9c0.3 0.2 0.3 0.4 0.1 0.6l23.2-4.4c1.1-1.1 2.9-2.5-3.2-2.1-14 2.2-17 4.3-24.2 7zm65.7-11.8l-0.6-2.8q-2.6 0.8-5.1 1.7c7.9-1.3-8.5 2.9-3.8 2.9l1.4-0.3 5.2-1.3c0.8-0.1 1 0 0.8 0.2zm0 0q-0.4 0.1-2.2 0.5c-0.6 0.3-2 0.9-3.6 1.4l2.9-0.4c0.2 0.2-1.9 0.6-4.8 1.1q-0.8 0.3-1.6 0.6c-17.6 2.9-47.7 10.5-59.7 12.5q-4.1 1-8.4 1.9 0.2 0.1 0.5 0.1-0.6 0.1-1.1 0.1-3.6 0.8-7.4 1.7c4.3-0.3 8.2-0.5 15.9-1.1q0.3 0 0.7-0.1v-1.2c1.6 0.1 1.8 0.3 4.6 0l-3 1c4.7-0.5 12.3-1.2 10.5-0.7q2.3-0.4 4.9-0.8c-4.7 0-3.3 0.9-7.7 0.4 10.7-1.5 20.9-5.2 29.2-7.6l-8.5 0.5c5-3.1 18.9-2.8 23.7-4.4-3 1.1-10 2-11.1 1.7l2.4 1.1c9.6-1.3 17.4-3.5 24.4-5.5zm-409.4 84.9c0.5-0.3-0.9-1.2 2.5-1.7-0.2-0.3 3.2 0.4-2.5 1.7zm65.5-16.8l-8.1 2.7 1-0.7zm11.3-0.7l4-2.3 1.6 0.2c9.5-1.2 23.2-5.9 28.5-5.1-8.1 1-22.7 4.8-34.1 7.2zm57.6-7.5c-0.4 0-0.6 0-1.2 0q0.3-0.1 0.7-0.2c-1.6 0.3-2.8 0.5-3.2 0.4l7-2.1q-0.5 0.1-0.9 0.1-0.3 0.1-0.6 0.2-2.3 0.5-4.8 1-1.1 0.3-2.3 0.6v0.7c0.1 0.5 0.1 0.7 0.2 1q0.1 0.9 0.1 1.8v0.9c0 0.3 0.2 0.3 0.1 0.5q0 0.1-0.1 0.1c0.9-0.3 7.4-2 17.9-4.5q-0.7 0.1-1.4 0.2c-4.4 0 2.7-3.6 2.3-4.1-1.1 0.5-4.9 1.4-8.7 2.2-0.1 0.1 0 0.1 0.3 0.2-2.7 0.4-4.3 0.7-5.4 1zm24.1-3.5c2.3-0.7-3.7 0.3-5.6 0.2-0.3 0.8-0.4 1.7-0.2 2.5 4-0.9 8.4-2 13.2-3.1l1.2-2.3 0.7 1.9c3.4-1.2 6.1-2.3 7.7-3.1-3.2 0.3-7.3 0.8-11 1.3l-3.6 0.8c3.6-0.1 4.4 0.2-2.4 1.8zm-55.4 3.4l4.6-1.5 5.6-0.5c0.4 0.6-7.9 1.3-10.2 2zm136.4-6.1l5.3 0.3c1.8 0.3-1.1 0.7-5.9 1.1-4.7 0.4-10.9 0.8-16.1 1.2 4.6-0.5 10.2-1.3 16.7-2.6zm42.5-31.6c3.6-0.8 7.6-1.5 12.8-2.2-1.4 1.2-6.5 1.4-12.8 2.2zm-138 9.4c2.7-0.5 5.7-0.9 9-1.4-2.7 0.5-5.6 0.9-9 1.4zm-64.4-23.3c-3.4 0.5-7 1-9.4 1.4 5.2-0.9 8-1.3 9.4-1.4zm314.7-2.7q0.1 0 0.1 0 0 0-0.1 0zm0.1 0c0.6-0.2 1.1-0.5 1.4-0.8-0.1 0.3-0.6 0.5-1.4 0.8zm16.3 1.2l-0.1-0.4 0.1 0.4c-1.1 0.1-2 0.2-2.9 0.3 1.5-0.2 2.7-0.4 2.9-0.3zm-2.8-13.3c-1.2 0.2-1.7 0.3-2 0.3 0.7-0.1 1.5-0.2 2-0.3zm-2.6 14.5c1-0.2 2.1-0.3 3.4-0.5-3.4 0.8-3.8 0.8-3.4 0.5zm-0.3-14.2c-0.2 0.1 0.1 0.1 0.9 0-2 0.4-4 0.8-6.1 1.3 2.6-0.6 4.1-1 5.2-1.3zm-90.1 41.4c7.5-0.5 14.1-1 18-1.1q-6.2-0.3-14.8-0.1-5.1 0.8-10.1 1.6c2.3-0.1 4.7-0.3 6.9-0.4zm-131.1 15c-3.8-0.2 5.4-2.1 8.4-2.7l-24 3.4c0.4 0.4-0.6 0.9-2.3 1.5-0.9 0.4-1.6 0.6-2.2 0.6-2.3 0.7-5.1 1.3-7.4 2 1.8-0.3 4.9-0.7 8.2-1.1l12.5-3c0.4 0.4-0.2 0.9-1.5 1.7 1.8-0.2 3.3-0.3 4.2-0.3 0.8 0 1.3 0 1.5 0.2q7-1.6 14.6-3.4c-6.5 0.4-1.9-0.7-12 1.1zm-32.4 6.7l1.6-0.3q0.3-0.5 0.8-0.9c-1.7 0.5-2.7 0.9-2.4 1.2zm2.4-1.2q1.1-0.4 2.5-0.7c-1 0.1-1.7 0.2-1.9 0.2q-0.3 0.2-0.6 0.5zm229.2-48.4q0 0 0.1 0.1zm-22.9 9.5q-0.8-0.1-0.9-0.3-0.9 0.1-1.7 0.2 1 0 2.6 0.1zm16.1-5.4q0.7 0.1 1.3 0.1-0.5-0.1-1.3-0.1zm-74.1 28.6c2.9-0.5 0.1-0.2-2-0.1q1.3 0 2 0.1zm-0.2 0.1q0.1-0.1 0.3-0.1 0 0-0.1 0-0.1 0-0.2 0.1zm177.5-84.9q-0.6 0.1-1.6 0.2c0 0 0.5-0.1 1.6-0.2zm-57.8 4.2q-1.2 0.2-2.2 0.5 1-0.3 2.2-0.5zm-57.9 44.9q0.1 0 0.3-0.1c-4.3 0.7-6.5 1.1-0.3 0.1zm13.1-2.5c1.3-0.4 1.2-0.6 0.6-0.6-0.8 0.5-3.7 1.2-7 1.8 1 0.1 2.7 0 6.4-1.2zm94.4-44.3l1.9-0.4c0.2-0.1 0.5-0.2-1.9 0.4zm-318.1 99q-0.1 0.1-0.1 0.1l2-0.6zm23.7 1.6c1 0 2.5-0.1 5.2-0.5-4 0.8-5.3 0.9-5.2 0.5zm197.7-43.6l0.9-0.2q-0.3 0.1-0.9 0.2zm0.9-0.2c1.2-0.4 0-0.5-0.2-0.7 2.1-0.2 3.5-0.2 7.5-1zm-19.9-1q-0.5 0.1-1.1 0.2c5.8-1.2 10.9-2.6 11.7-1.7-6 1.7-12.1 3.3-10.6 1.5zm-7.7 1.6c1.7-0.3 3.5-0.7 5.3-1.1-3.1 0.8-5.9 1.8-5.3 1.1zm48.1-19c-1.6-0.1-0.2 1.3-3 1.6-14.7 4.1 5.7-3.6 3-1.6zm-364.8 18.4h-6.2l10.3-0.9zm-25.1 5.1q2.9-1.2 6.1-2.4 1.2 0.7 2.1 1.4c-1.6-0.2-6 0.6-8.2 1z"/></svg>