<svg version="1.2" xmlns="http://www.w3.org/2000/svg" viewBox="0 0 499 109" width="499" height="109"><style>.a{fill:#1e1e1e}</style><path fill-rule="evenodd" class="a" d="m476.4 103.1l-21.2-2.5q0.4 0.2 0.8 0.4c2.6 1.5 5.7 2.9-0.9 3.1l8.5 0.7c-1.9 0.6-8.7-0.1-15.7-0.9-7-0.9-14.1-1.7-18.6-1.3q-12.1-2.3-22-4.4c-1.3 0.5-9.2 0.5-5.4 1.1-3.6-0.4-6.9-0.7-8.7-0.8-1.8-0.1-2.1 0.1 1 1-13.6-2.7-27.1-4.8-41.9-6.8-14.8-2-31-3.9-48.2-5.8-17.2-2-34.4-3.9-51.5-5.8-16.3-2-31-3.8-39.2-5.4-6.1-0.6-11.4-0.6-14.7-0.6 4.4-0.3-0.9-0.7-9-1.2-8.1-0.5-18.8-1.1-23.9-1.6q6.8-0.4 15.4-0.5c-8.4-0.7-14-1-18.3-1.2-3.6-0.1-8.7-0.3-11.1-0.4-14.4-1.6-23.9-2.9-31.6-4-7.7-1.1-13.5-2.1-22.4-3.3-2.5-0.5-7.9-1.2-17.5-2.2 4.9 0.2 12.2 0.6 18.6 1 6.3 0.4 11.4 0.8 10.4 0.5-7-0.3-12.9-0.7-17.7-1.1-4.7-0.4-8.4-0.8-11.7-1.2-3.2-0.4-6.2-0.8-9.5-1.1-2.7-0.3-5.6-0.5-9.2-0.7 12.4 0.5 9.5-0.1 8.8-0.4-0.4-0.2-0.4-0.4 2.2-0.3 2.6 0 7.6 0.3 17.8 1-7-1-21.8-1.9-23.1-1.8-3.3-0.5-6.8-1-11.2-1.6-4.4-0.6-9.9-1.2-16.6-1.9 1-0.1-8.9-1.5-17.2-2.8-7.1-1.2-14.4-2.3-18.3-3 0 0-0.1 0-0.3 0-0.5-0.1-1.8-0.3-3.5-0.5 0.9 0 1.9 0 2.9 0h-2.9l0.6 0.1-0.6-0.1 6.6-0.1c1.2 0 1.7 0 2 0 0.7 0.1 1 0.1 1.7 0.2 0.8 0 1.8 0.1 4.3 0.2 6.7 0.2 4.4-0.1 3.8-0.5l-1.7-0.1 2.4-0.2c1.2 0 1.2 0.3 1.6 0.5 0.5 0.3 1.1 0.4 8.4 0.8-0.8-0.1-2.1-0.4-2.7-0.7-0.5-0.2-0.4-0.4 4.2 0-4.8-0.1 1.1 0.6 5.9 1l8.8 0.3-15.3-1.6c4.3 0 9.2 0.1 15 0.2 5.8 0.2 12.4 0.4 19.5 0.7q10.8 0.5 21.8 1c7.1 0.3 14 0.6 19.2 0.7 14.7 1.7 25.8 2.4 37.8 3.3 6 0.4 12.1 0.9 18.5 1.5 6.4 0.6 12.8 1.4 20.2 2.5l-5.3-0.6c-4.7-0.2 3.8 0.8 13.2 1.8 9.4 1.1 19.2 2 21.5 2-4.6-0.5-8-0.9-10.7-1.4-2.6-0.4-4.5-0.8-6.5-1.2-4-0.8-8.3-1.6-25.9-2.9q3.9-0.3 10.7-0.5c-18.4-3.5 6.9-1.8 34 0.4 12.9 1 26.7 2.2 40.4 3.3 12.7 1 23.9 1.7 34.7 2-3 0-3.6 0.2-3.9 0.3q3.5 0.1 7.1 0.3 1-0.1 2.1-0.1c1.3 0.1 2.6 0.1 3.9 0.2 2.6 0.2 5.5 0.6 8.6 1 6 0.8 13.2 1.7 12.8 1.3l7.3 1.8c1.2-0.8 0.6-1.3 1.3-1.5 0.8-0.2 2.6-0.2 7.4 0.3q3.3 0.4 8.2 0.9c1.8 0.3 3.5 0.8 8 1.3-2.6-0.6-5.5-1.3-6.8-1.7-1.2-0.4-0.8-0.5 4.2-0.1l4.4 0.7 9.1 0.3c29.3 4.1 25.3 2.9 22.4 2.1-13.4-2-20.6-3.1 4-0.5-19.2-2.4-32.8-4.6-42.3-5.9 1.8 0.2 3.5 0.4 4.9 0.4-10.9-1.2-13.4-1.6-13.8-1.8-0.3-0.3 1.3-0.5 0.8-0.9-0.2-0.2-0.9-0.4-2.5-0.6-7.3-0.9-10.1-0.7-14.1-0.8 1.8-0.1 0.7-0.4-1.6-0.7-2.2-0.4-5.5-0.7-8.4-0.9-6-0.6-10.1-0.6-9.5-0.9-0.9-0.2-0.1-0.5 1.3-0.7 1.3-0.2 3.4-0.4 4.1-0.7-4.1-0.6-5.6 0-7.2 0.4-0.8 0.2-1.4 0.3-2 0.3-0.6 0-0.8-0.1-1.7-0.7 0.9 0 2.5 0.1 2.4-0.1-0.5-0.2-0.7-0.6-1.2-1.1-0.4-0.6-1.2-1.3-2.4-2.1-0.7-0.4-1.3-0.8-2.2-1.2q-1.7-0.7-3.3-1.2c-2.2-0.7-4.2-1.2-6-1.3l4.4 1.5q-2.4-0.2-4.9-0.7c-2-0.4-4.3-0.9-6.4-1.4-4.3-1-8.1-2.1-11.2-3-6.4-1.8-10.2-3-15.3-2.6q-1 0.5-1.9 0.9c-6.2-1.5-9.7-2.4-12.4-2.9-2.6-0.6-4.4-0.9-6.2-1.1-1.8-0.3-3.8-0.6-6.6-1.1q-1.5-0.4-3.5-0.8c-3.3 0-6.5-0.4-9.4-0.8 2.5 0.1 4.7 0.2 6.8 0.2q-2.1-0.5-4.5-1.1c-16.3-1.4-31.7-0.5-46.4-1.2l-0.1-0.3-17.9 0.1c4.7-0.7-3.5 0.5-8.9 0.1-5.7 0.2-14.9-0.4-21.6-1.3l-11.3-0.4c12.6-0.3-0.9-1.5-1.5-2.7l-7.3 0.6c-2.9-0.6 4.7-0.7-0.7-1.2-3 0.3-9.8 0.2-15.5 0.3l-0.1 2q0 0 0 0l0.1-2q0 0 0 0l0.1-1.9q0 0 0 0l0.2-2.8h-0.1l-0.1 2.8q0 0-0.1 0l0.2-2.8h-0.1q0 0 0.1 0l0.2-2.9q0 0 0 0l-0.2 2.9q0.1 0 0.1 0l0.1-2.9q0 0 0 0l0.1-1.9q0 0 0 0l0.2-2q0 0 0 0l-0.2 2c3.5 0.1 6.5 0 8.2-0.3-0.7-0.3-2.4-0.7-4.5-1.1-0.6 0-0.6 0-0.2-0.1-0.2 0-0.3 0-0.5-0.1 0.3 0.1 0.4 0.1 0.6 0.1 0.6-0.1 1.6-0.2 2-0.3 9 0.9 5.8 0.2 5.5-0.3 9.6 2.4 15.3 1.8 22.4 4.1-5.7-2.2 19.5 1.3 19-0.1-4.1-0.6-8.5-1.3-13-2-3.9-0.8-6.5-1.6-8.5-2.2-1.8-0.6-3.5-1.2-4.1-1.4 7.7 1.6 12 1.6 15.9 1.8-16.3-2.2-18.4-2.7-16.6-3.2-7.9-0.9-16-1.7-22.7-2.6-6.7-0.9-11.5-1.8-13.7-2.7 2.3 0.5 4.5 1 6.5 1.1 2 0-2-0.7-3.2-0.9 0.9 0 2.1 0.2 3.7 0.5 1.5 0.2 3.3 0.4 4.9 0.5-7.7-1.2-9-1.7-10.5-2.3-0.8-0.3-1.4-0.7-2.5-1q-1.6-0.6-4.4-1.4c3.3 0.8 2.7 0.4 3.1 0.3-2.7-0.4-3.9-0.9-5.9-1.5-0.9-0.3-2-0.6-2.6-0.7-0.6-0.2-0.7-0.2-0.4 0q-0.6-0.2-1.2-0.4l-0.7-0.2c-0.3-0.1 0 0 0.1 0h0.4q1.5 0 3.2 0 3.6 0.1 7.3 0.3c5.1 0.2 10.4 0.4 15.3 0.5 9.8 0.4 18.1 0.7 30.1 2.4 4.5 0.8 5.6 0.7 5.5 0.4 0.1-0.3-1.2-0.8 0.2-0.8l9.6 1.9c-2.3-0.8-3.7-1.3-4.1-1.6-0.5-0.3-0.2-0.4-0.3-0.6 1.7 0 3.5-0.1 6.2-0.6 0.8 0.7 4.2 1.5 9.5 2.4 5.3 1 12.7 2.1 21.8 3.5q-3-1.4-3.6-2.5l16.6 3.2c1.2-0.5 10.6 0.7 19.2 1.8q0 0 0 0 0 0 0 0 0 0 0 0 0 0 0 0 0 0 0 0c-5.5-2.3 23 0.7 23.5-0.2 8.6 1.9 12.9 2.2 17.5 2.5 4.4 0.3 9 0.6 14.2 2.1 1.7-0.1 4.5-0.1 7.7 0-2.7-0.7-5.1-1.4-5.7-1.8-0.6-0.4 0.8-0.4 5.1 0.2 0.7 0.1 1.2 0.1 1.8 0.2l5.1 1.7c7 0.4 14.7 1.1 19.8 1.5-2.3-0.3-5-0.8-8.1-1.4 3.4 0.6 6.5 1.1 9.6 1.6 0.8 0.1 1.5 0.2 2.1 0.2q-0.5 0-1.1 0c2.9 0.5 6 1 10.2 1 16.6 3.6 37.6 1.1 55.9 5.5-2.8-0.5-6.7-1-7.8-0.7 7.8 0.7 15.4 1.9 22.5 2.9l1.6 0.3 0.5 0.1h0.3l0.1 0.1c0.3 0.1 0.8 0.3 1.3 0.5 0.9 0.6 1.7 1.6 2 2.6 0.2 0.4 0.3 0.7 0.3 1.6 0 0.7-0.2 1.8-0.8 2.7-0.6 1-1.5 1.6-2.2 1.9-0.3 0.2-0.7 0.3-0.9 0.3l-0.4 0.1-0.4 0.1h-0.2c-0.4 0-0.6 0-0.9 0q-0.1 0-0.3 0c0 0.2 0 0.1 0 0.1h-0.1l-0.5 0.1h-1.5c-1.9-0.1-3.7-0.2-5.8-0.5q-1.5 0-2.9 0c2.1 0.4 0.7 0.7-4.6 0.5l0.4 0.8c-11.4 0.2-20.3 0.3-29.5-0.1l-0.5 1.3c-5.9-0.3-14.6-0.3-23.4-0.5l199.1 15.1m-302.9-42.4q0.1 0.1 0.2 0.1-0.1-0.1-0.3-0.1 0 0 0.1 0zm34.7 22.1l11.3 0.9q1.4 0 2.9 0.1l0.1 0.1 27.2 2q0.4 0 0.7-0.1 0.4 0.1 0.8 0.2l17.7 1.4q0 0-0.1-0.1c-1.2-0.5-2-1.1-2.7-1.6-1.3 0-2 0.2-2.8 0.2q0.3 0.2 0.5 0.3c0.3 0.2 0.4 0.4 0.2 0.5q-0.1 0-0.5 0-0.2 0-0.5 0c-0.2 0-0.4 0-0.5 0q-0.6 0.1-1.9-0.1c-4.1-1.5-6.7-1.3-18-2.4-0.9-0.4 0.5-0.4 2-0.4 1.5 0 3.1 0.1 3.6 0q-4.2-0.2-9.3-0.4c-0.7-0.2 1.7-0.2 2.8-0.2-2.6-0.2-5-0.2-7.5-0.3-2.5-0.1-5.3-0.2-9.8-0.8-3.9-0.2-5.3-0.5-5.6-0.8q-0.8 0-1.8-0.1l0.4 0.6-7.1-1.5 9.4 0.3c0.4-0.2 0.6-0.3-0.1-0.5-0.9-0.3-3.4-0.7-10-1.4 1.4 0 4 0.3 6.9 0.5 3.7 0.4 5.8 0.5 8.8 0.8-7.6-1-12.1-1.5-15.7-2-3.4-0.4-6.3-0.8-10-1.2q-5.5-0.2-11-0.4c-1.9 0.1-3.8 0.2 5.1 0.7-6.3 0-3.2 1.1-13.6 0.4q-0.7-0.2-1-0.4-0.3 0-0.6 0.1l29.7 5.6-22.5-1.7c1.5 0.3 3.2 0.7 5.4 1l-1.5-0.1q0.5 0.2 0.9 0.3 4.9 0.4 9.9 1.1c3.3-0.1 6.7-0.1 10.7-0.1zm136.4-1.8q1.5 0.2 2 0.2c-0.1-0.1 0-0.2 0-0.3q-0.2-0.8-0.3-1.7c-0.1-0.6 0-0.8-0.1-1.9l-0.1-1.2h-0.1v0.1c0 0 0 0-0.1 0h-0.3l-0.6 0.1-1.5 0.2c-4.1 0.4-8.5 0.6-14.2-0.3-3.9-0.2-11.7-2.6-12.4-1.6q0.1 0.1 0.3 0.1l3 0.1q-0.9 0.1-2 0.3-0.5-0.2-1-0.4l-9.5-0.2-3.1-1.2c-7.9-0.2-15.5 0.7-21.8 1.8q1.8 0.2 3.6 0.4 0.1-0.1 0.2-0.2c4.9 0.1 5.4 0.4 5.5 0.7q2.3 0.2 4.6 0.5c1.2-0.2 2.4-0.5 2.5-0.7 1.2 0.3 1.4 0.6 0.9 1q1.7 0.2 3.3 0.3c5.8-0.7 11.1-1.4 14.8-2q0 0 0 0c2 1 3.3 2.4 4 3.8 10.6 1.1 18.4 1.8 22.4 2.1zm-98.9-2.6c1.5 0.3 2.3 0.6 2.9 0.9 1.7-0.2 3.5-0.4 5.1-0.6q-4-0.1-8-0.3zm0.2 0.9l-2.1-0.9q-0.7-0.1-1.4-0.1c0.6 0.2 1.5 0.6 1.8 0.8q0.8 0.1 1.7 0.2h0.2q-1.1 0-1.9-0.1 0.1 0.2 0 0.3 1.3 0 2.8-0.1-0.5-0.1-1.1-0.1zm-129.3-13.7q-3.9-0.6-7.3-1.1 2.8 0.4 5.8 0.8l-7.7-1.5q-0.3 0-0.6-0.1c-0.4 0-0.9 0-1.8-0.1-1-0.1-1.4 0-1.3 0.1 1.5 0.2 3.5 0.5 5.6 0.8-7.8-1-13.1-1.7-13.7-1.6l20.3 3.4c0.3 0 1.1 0 2-0.1q0.7 0 1.5 0h0.4c0.1 0 0.1 0 0.2 0zm9.5 11.7c-0.3-0.3-0.3-0.5-0.1-0.6l-23.5-1.8c-1.3 0.8-3.4 1.7 2.6 2.9 14 1.5 17.5 0.2 25.2-0.5zm-66.6-5.6l-0.1 2.9q2.8-0.2 5.4-0.4c-8-0.8 9-0.5 4.4-1.8l-1.4-0.1h-5.4c-0.7-0.2-0.9-0.3-0.7-0.5zm0 0q0.4 0.1 2.3 0.1c0.6-0.2 2.1-0.3 3.8-0.4l-2.9-0.4c-0.1-0.2 2-0.1 4.9 0.2q0.9-0.1 1.6-0.1c17.9 1.7 48.9 2.2 61 3.3q4.2 0.2 8.6 0.3-0.2-0.1-0.5-0.2 0.6 0.1 1.1 0.2 3.8 0.2 7.6 0.3c-4.2-0.8-8-1.6-15.6-3.1q-0.3 0-0.7-0.1l-0.3 1.2c-1.5-0.4-1.7-0.7-4.5-1.1l3.2-0.3c-4.7-0.7-12.2-2-10.3-2q-2.4-0.2-4.9-0.5c4.5 1.2 3.3 0 7.5 1.6-10.7-1.3-21.5-0.4-30.2-0.2l8.4 1.7c-5.7 1.7-19-2.2-24.1-1.9 3.2-0.2 10.2 0.7 11.1 1.2l-2-1.6c-9.6-1.3-17.7-1.2-25-1zm417.4 24c-0.5 0.1 0.6 1.3-2.8 0.9 0.1 0.3-3-1.1 2.8-0.9zm-67.6-0.8l8.5-0.5-1 0.4zm-11.2-2.2l-4.4 1.1-1.6-0.5c-9.4-1.4-23.9-0.3-28.8-2.6 8.1 1.2 23.2 1.3 34.8 2zm-57.6-7.7c0.4 0.1 0.6 0.2 1.2 0.3q-0.3 0-0.7 0c1.6 0.1 2.8 0.3 3.2 0.5l-7.3 0.2q0.4 0 0.9 0.1 0.3 0 0.6 0 2.3 0.1 4.9 0.2 1.2 0 2.4 0.1l0.1-0.7c0.1-0.5 0.1-0.7 0.1-1q0.1-0.9 0.4-1.8l0.2-0.9c0.1-0.2-0.1-0.3 0-0.5q0.1-0.1 0.2-0.1c-1 0.2-7.7 0-18.4-0.2q0.6 0 1.3 0.1c4.3 1.1-3.5 2.8-3.2 3.4 1.1-0.2 5-0.1 8.9 0.2 0.1-0.1 0-0.2-0.2-0.3 2.7 0.2 4.3 0.4 5.4 0.4zm-24.1-2.9c-2.4 0.2 3.6 0.7 5.4 1.2 0.6-0.6 0.8-1.4 0.8-2.3-4.1-0.1-8.6-0.2-13.5-0.4l-1.7 1.9-0.2-1.9c-3.6 0.2-6.5 0.5-8.2 1 3.1 0.5 7.2 1 10.9 1.5l3.7 0.1c-3.5-0.8-4.3-1.3 2.8-1.1zm54.4 11.1l-4.9 0.2-5.5-1c-0.3-0.6 8 0.9 10.4 0.8zm-133.4-29.4l-5-1.6c-1.7-0.8 1.3-0.4 5.9 0.4 4.7 0.8 10.8 2 16 3-4.6-0.7-10.2-1.4-16.9-1.8zm-49.3 19.5c-3.6-0.2-7.7-0.5-12.8-1.1 1.6-0.9 6.6 0.2 12.8 1.1zm135.8 26.7c-2.7-0.3-5.8-0.6-9-1 2.7 0.2 5.6 0.5 9 1zm56.2 39.2c3.4 0.3 7 0.8 9.4 1-5.2-0.5-8-0.8-9.4-1zm-304.7-79q0 0.1-0.1 0.1 0.1 0 0.1-0.1zm-0.1 0.1c-0.6 0-1.2 0.1-1.5 0.4 0.1-0.3 0.7-0.4 1.5-0.4zm-15.4-5.4c1.1 0.1 2 0.3 2.9 0.4-1.6-0.2-2.7-0.3-2.9-0.4zm-0.8 13.5c1.3 0.1 1.7 0.2 2.1 0.2-0.8 0-1.5-0.1-2.1-0.1zm6.3-13.4c-1-0.1-2.1-0.2-3.4-0.4 3.5 0.1 3.9 0.3 3.4 0.4zm-3.4 13.8c0.2-0.1-0.1-0.1-0.8-0.3 1.9 0.2 4 0.3 6.2 0.4-2.6-0.1-4.2-0.1-5.4-0.1zm97.8-16.6c-7.4-1.5-13.9-2.8-17.7-3.6q5.9 1.8 14.3 3.9 5.1 0.5 10.2 1c-2.3-0.5-4.6-0.9-6.8-1.3zm130.5 19.4c3.6 1.2-5.8 0.7-8.8 0.4l24 2.9c-0.2-0.5 0.9-0.7 2.6-0.8 1.1-0.1 1.8-0.1 2.3-0.1 2.4 0 5.3 0.1 7.7 0.1-1.8-0.2-4.9-0.6-8.2-1.1l-12.9-0.3c-0.2-0.5 0.5-0.9 2-1.2-1.8-0.3-3.3-0.6-4.2-0.8-0.8-0.3-1.2-0.5-1.4-0.7q-7.2-0.2-15-0.5c6.4 1.3 1.7 1.2 11.9 2.1zm33 1.8h-1.7q-0.4 0.4-0.9 0.7c1.7-0.1 2.8-0.3 2.6-0.7zm-2.6 0.7q-1.2 0-2.6 0c1 0.1 1.7 0.2 1.9 0.2q0.4-0.1 0.7-0.2zm-233.9-12.6q0-0.1-0.1-0.1zm24.6-3.3q0.8 0.3 0.8 0.5 0.9 0.1 1.7 0.2-1-0.3-2.5-0.7zm-17 1q-0.6-0.2-1.2-0.4 0.5 0.2 1.2 0.4zm79-8.4c-2.9-0.3-0.2 0.1 1.9 0.6q-1.3-0.4-1.9-0.6zm-193.2 36q0.6 0.1 1.6 0.3c0-0.1-0.5-0.1-1.6-0.3zm56.9 10.9q1.2 0.1 2.3 0.1-1.1 0-2.3-0.1zm67.6-28.4q-0.2 0-0.3 0c4.3 0.4 6.6 0.7 0.3 0zm-13.4-1c-1.3 0.1-1.2 0.3-0.6 0.5 0.9-0.3 3.8-0.2 7.1 0-0.9-0.3-2.5-0.6-6.5-0.5zm-102.6 18.4l-1.9-0.1c-0.2 0-0.6 0.1 1.9 0.1zm332.9-13.3q0.1 0 0.1-0.1h-2.1zm-22.4-7.6c-1-0.3-2.5-0.6-5.2-0.8 4.1 0.2 5.3 0.5 5.2 0.8zm-202.3-9h-1q0.4-0.1 1 0zm-1 0c-1.2 0-0.1 0.4 0.1 0.7-2-0.4-3.5-0.8-7.5-1zm19 6.1q0.5 0 1.1 0c-5.9-0.2-11.2-0.2-11.8-1.3 6.3-0.1 12.6-0.1 10.7 1.3zm7.8 0.5c-1.7-0.2-3.6-0.3-5.4-0.4 3.2 0.1 6.1-0.1 5.4 0.4zm-51.4 5.8c1.6 0.5 0.6-1.1 3.4-0.7 15.2-0.2-6.5 2-3.4 0.7zm357.2 76.7l6 1.6-10.2-1.8zm25.5 1.6q-3 0.4-6.5 0.7-0.9-0.9-1.7-1.9c1.5 0.6 6 1 8.2 1.2z"/></svg>